HIERARCHY
ROOT mixamorig:Hips
{
	OFFSET 0.000000 201.639420 0.000000
	CHANNELS 6 Xposition Yposition Zposition Xrotation Yrotation Zrotation
	JOINT mixamorig:Spine
	{
		OFFSET 0.006200 19.524994 -2.481800
		CHANNELS 3 Xrotation Yrotation Zrotation
		JOINT mixamorig:Spine1
		{
			OFFSET -0.000900 22.835007 -2.825400
			CHANNELS 3 Xrotation Yrotation Zrotation
			JOINT mixamorig:Spine2
			{
				OFFSET -0.020600 26.552490 -3.193300
				CHANNELS 3 Xrotation Yrotation Zrotation
				JOINT mixamorig:Neck
				{
					OFFSET -0.060000 30.701813 1.352200
					CHANNELS 3 Xrotation Yrotation Zrotation
					JOINT mixamorig:Head
					{
						OFFSET -0.087200 22.547607 3.670900
						CHANNELS 3 Xrotation Yrotation Zrotation
						JOINT mixamorig:HeadTop_End
						{
							OFFSET -0.830600 40.355194 7.893500
							CHANNELS 3 Xrotation Yrotation Zrotation
							End Site
							{
								OFFSET 0.000000 30.592346 0.000000
							}
						}
						JOINT mixamorig:RightEye
						{
							OFFSET -6.302100 18.118591 16.197100
							CHANNELS 3 Xrotation Yrotation Zrotation
							End Site
							{
								OFFSET 0.000000 30.592346 0.000000
							}
						}
						JOINT mixamorig:LeftEye
						{
							OFFSET 6.741500 18.382690 16.401899
							CHANNELS 3 Xrotation Yrotation Zrotation
							End Site
							{
								OFFSET 0.000000 30.592346 0.000000
							}
						}
					}
				}
				JOINT mixamorig:LeftShoulder
				{
					OFFSET 11.924900 18.230499 1.425400
					CHANNELS 3 Xrotation Yrotation Zrotation
					JOINT mixamorig:LeftArm
					{
						OFFSET 25.435989 -0.697632 -5.229300
						CHANNELS 3 Xrotation Yrotation Zrotation
						JOINT mixamorig:LeftForeArm
						{
							OFFSET 54.684776 0.000000 0.000000
							CHANNELS 3 Xrotation Yrotation Zrotation
							JOINT mixamorig:LeftHand
							{
								OFFSET 55.098175 0.000000 0.000000
								CHANNELS 3 Xrotation Yrotation Zrotation
								JOINT mixamorig:LeftHandMiddle1
								{
									OFFSET 23.369751 0.000000 0.000000
									CHANNELS 3 Xrotation Yrotation Zrotation
									JOINT mixamorig:LeftHandMiddle2
									{
										OFFSET 6.378677 0.000000 0.000000
										CHANNELS 3 Xrotation Yrotation Zrotation
										JOINT mixamorig:LeftHandMiddle3
										{
											OFFSET 6.148331 0.000000 0.000000
											CHANNELS 3 Xrotation Yrotation Zrotation
											JOINT mixamorig:LeftHandMiddle4
											{
												OFFSET 6.582504 0.000000 0.000000
												CHANNELS 3 Xrotation Yrotation Zrotation
												End Site
												{
													OFFSET -1.168900 6.395691 1.028606
												}
											}
										}
									}
								}
								JOINT mixamorig:LeftHandThumb1
								{
									OFFSET 7.235672 -3.848206 5.434273
									CHANNELS 3 Xrotation Yrotation Zrotation
									JOINT mixamorig:LeftHandThumb2
									{
										OFFSET 6.568451 -3.792297 3.792300
										CHANNELS 3 Xrotation Yrotation Zrotation
										JOINT mixamorig:LeftHandThumb3
										{
											OFFSET 6.063080 -3.500519 3.500518
											CHANNELS 3 Xrotation Yrotation Zrotation
											JOINT mixamorig:LeftHandThumb4
											{
												OFFSET 4.793182 -2.767334 2.767349
												CHANNELS 3 Xrotation Yrotation Zrotation
												End Site
												{
													OFFSET 0.101639 6.054260 1.275483
												}
											}
										}
									}
								}
								JOINT mixamorig:LeftHandIndex1
								{
									OFFSET 23.101074 -0.309540 4.992809
									CHANNELS 3 Xrotation Yrotation Zrotation
									JOINT mixamorig:LeftHandIndex2
									{
										OFFSET 6.226883 0.000000 0.000000
										CHANNELS 3 Xrotation Yrotation Zrotation
										JOINT mixamorig:LeftHandIndex3
										{
											OFFSET 6.094330 0.000000 0.000000
											CHANNELS 3 Xrotation Yrotation Zrotation
											JOINT mixamorig:LeftHandIndex4
											{
												OFFSET 5.482605 0.000000 0.000000
												CHANNELS 3 Xrotation Yrotation Zrotation
												End Site
												{
													OFFSET -1.427902 5.233032 0.797164
												}
											}
										}
									}
								}
								JOINT mixamorig:LeftHandRing1
								{
									OFFSET 22.299240 0.021149 -3.964172
									CHANNELS 3 Xrotation Yrotation Zrotation
									JOINT mixamorig:LeftHandRing2
									{
										OFFSET 6.321869 0.000000 0.000000
										CHANNELS 3 Xrotation Yrotation Zrotation
										JOINT mixamorig:LeftHandRing3
										{
											OFFSET 5.899796 0.000000 0.000000
											CHANNELS 3 Xrotation Yrotation Zrotation
											JOINT mixamorig:LeftHandRing4
											{
												OFFSET 6.517899 0.000000 0.000000
												CHANNELS 3 Xrotation Yrotation Zrotation
												End Site
												{
													OFFSET -1.637299 6.232208 0.980890
												}
											}
										}
									}
								}
								JOINT mixamorig:LeftHandPinky1
								{
									OFFSET 20.463791 -0.302338 -8.562233
									CHANNELS 3 Xrotation Yrotation Zrotation
									JOINT mixamorig:LeftHandPinky2
									{
										OFFSET 6.908646 0.000000 0.000000
										CHANNELS 3 Xrotation Yrotation Zrotation
										JOINT mixamorig:LeftHandPinky3
										{
											OFFSET 4.622849 0.000000 0.000000
											CHANNELS 3 Xrotation Yrotation Zrotation
											JOINT mixamorig:LeftHandPinky4
											{
												OFFSET 5.216080 0.000000 0.000000
												CHANNELS 3 Xrotation Yrotation Zrotation
												End Site
												{
													OFFSET -0.606308 5.116241 0.814926
												}
											}
										}
									}
								}
							}
						}
					}
				}
				JOINT mixamorig:RightShoulder
				{
					OFFSET -12.001300 18.284088 1.348900
					CHANNELS 3 Xrotation Yrotation Zrotation
					JOINT mixamorig:RightArm
					{
						OFFSET -25.308500 -0.751312 -5.164599
						CHANNELS 3 Xrotation Yrotation Zrotation
						JOINT mixamorig:RightForeArm
						{
							OFFSET -54.684429 0.000000 0.000000
							CHANNELS 3 Xrotation Yrotation Zrotation
							JOINT mixamorig:RightHand
							{
								OFFSET -55.150291 0.000000 0.000000
								CHANNELS 3 Xrotation Yrotation Zrotation
								JOINT mixamorig:RightHandMiddle1
								{
									OFFSET -23.317566 0.000000 0.000000
									CHANNELS 3 Xrotation Yrotation Zrotation
									JOINT mixamorig:RightHandMiddle2
									{
										OFFSET -6.378403 0.000000 0.000000
										CHANNELS 3 Xrotation Yrotation Zrotation
										JOINT mixamorig:RightHandMiddle3
										{
											OFFSET -6.148193 0.000000 0.000000
											CHANNELS 3 Xrotation Yrotation Zrotation
											JOINT mixamorig:RightHandMiddle4
											{
												OFFSET -6.583389 0.000000 0.000000
												CHANNELS 3 Xrotation Yrotation Zrotation
												End Site
												{
													OFFSET 1.171692 6.395905 1.029786
												}
											}
										}
									}
								}
								JOINT mixamorig:RightHandThumb1
								{
									OFFSET -7.190521 -3.860474 5.435846
									CHANNELS 3 Xrotation Yrotation Zrotation
									JOINT mixamorig:RightHandThumb2
									{
										OFFSET -6.567429 -3.791718 3.791708
										CHANNELS 3 Xrotation Yrotation Zrotation
										JOINT mixamorig:RightHandThumb3
										{
											OFFSET -6.062469 -3.500153 3.500166
											CHANNELS 3 Xrotation Yrotation Zrotation
											JOINT mixamorig:RightHandThumb4
											{
												OFFSET -4.792618 -2.767029 2.767022
												CHANNELS 3 Xrotation Yrotation Zrotation
												End Site
												{
													OFFSET -0.100327 6.053253 1.276754
												}
											}
										}
									}
								}
								JOINT mixamorig:RightHandIndex1
								{
									OFFSET -23.048981 -0.310791 4.992554
									CHANNELS 3 Xrotation Yrotation Zrotation
									JOINT mixamorig:RightHandIndex2
									{
										OFFSET -6.227539 0.000000 0.000000
										CHANNELS 3 Xrotation Yrotation Zrotation
										JOINT mixamorig:RightHandIndex3
										{
											OFFSET -6.095047 0.000000 0.000000
											CHANNELS 3 Xrotation Yrotation Zrotation
											JOINT mixamorig:RightHandIndex4
											{
												OFFSET -5.484772 0.000000 0.000000
												CHANNELS 3 Xrotation Yrotation Zrotation
												End Site
												{
													OFFSET 1.420593 5.237305 0.797056
												}
											}
										}
									}
								}
								JOINT mixamorig:RightHandRing1
								{
									OFFSET -22.246323 0.020569 -3.963762
									CHANNELS 3 Xrotation Yrotation Zrotation
									JOINT mixamorig:RightHandRing2
									{
										OFFSET -6.322128 0.000000 0.000000
										CHANNELS 3 Xrotation Yrotation Zrotation
										JOINT mixamorig:RightHandRing3
										{
											OFFSET -5.900024 0.000000 0.000000
											CHANNELS 3 Xrotation Yrotation Zrotation
											JOINT mixamorig:RightHandRing4
											{
												OFFSET -6.518356 0.000000 0.000000
												CHANNELS 3 Xrotation Yrotation Zrotation
												End Site
												{
													OFFSET 1.636398 6.232697 0.982186
												}
											}
										}
									}
								}
								JOINT mixamorig:RightHandPinky1
								{
									OFFSET -20.411011 -0.303314 -8.561701
									CHANNELS 3 Xrotation Yrotation Zrotation
									JOINT mixamorig:RightHandPinky2
									{
										OFFSET -6.907349 0.000000 0.000000
										CHANNELS 3 Xrotation Yrotation Zrotation
										JOINT mixamorig:RightHandPinky3
										{
											OFFSET -4.623840 0.000000 0.000000
											CHANNELS 3 Xrotation Yrotation Zrotation
											JOINT mixamorig:RightHandPinky4
											{
												OFFSET -5.218353 0.000000 0.000000
												CHANNELS 3 Xrotation Yrotation Zrotation
												End Site
												{
													OFFSET 0.602097 5.118835 0.816273
												}
											}
										}
									}
								}
							}
						}
					}
				}
			}
		}
	}
	JOINT mixamorig:LeftUpLeg
	{
		OFFSET 18.168400 -13.561905 -0.039000
		CHANNELS 3 Xrotation Yrotation Zrotation
		JOINT mixamorig:LeftLeg
		{
			OFFSET 0.577358 -80.825211 -3.695000
			CHANNELS 3 Xrotation Yrotation Zrotation
			JOINT mixamorig:LeftFoot
			{
				OFFSET -0.577356 -83.370262 -6.520700
				CHANNELS 3 Xrotation Yrotation Zrotation
				JOINT mixamorig:LeftToeBase
				{
					OFFSET 0.750401 -20.798306 25.135401
					CHANNELS 3 Xrotation Yrotation Zrotation
					JOINT mixamorig:LeftToe_End
					{
						OFFSET -0.000500 0.001200 19.917799
						CHANNELS 3 Xrotation Yrotation Zrotation
						End Site
						{
							OFFSET 0.000000 19.917805 0.000000
						}
					}
				}
			}
		}
	}
	JOINT mixamorig:RightUpLeg
	{
		OFFSET -18.162500 -13.585098 -0.041000
		CHANNELS 3 Xrotation Yrotation Zrotation
		JOINT mixamorig:RightLeg
		{
			OFFSET -0.595024 -80.945297 -3.631900
			CHANNELS 3 Xrotation Yrotation Zrotation
			JOINT mixamorig:RightFoot
			{
				OFFSET 0.595024 -83.218193 -6.561200
				CHANNELS 3 Xrotation Yrotation Zrotation
				JOINT mixamorig:RightToeBase
				{
					OFFSET -0.753601 -20.807106 25.115000
					CHANNELS 3 Xrotation Yrotation Zrotation
					JOINT mixamorig:RightToe_End
					{
						OFFSET 0.000299 0.001700 19.918200
						CHANNELS 3 Xrotation Yrotation Zrotation
						End Site
						{
							OFFSET 0.000000 19.918203 0.000000
						}
					}
				}
			}
		}
	}
}
MOTION
Frames: 5
Frame Time: 0.033333
14.357521 203.555679 7.033762 -1.809325 12.618288 -15.838196 3.287455 -0.916506 -3.822611 5.612822 -2.079013 -6.937457 5.631890 -1.941990 -6.967240 6.896942 4.024736 1.796318 -4.643725 23.422781 -1.326785 -0.000000 -0.000001 0.000002 -0.000000 -0.000001 0.000002 -0.000000 -0.000001 0.000002 1.119920 -5.782997 6.589483 -2.373371 19.376538 -23.291092 0.000001 -38.530590 0.000017 57.327977 -33.332276 20.467222 0.336747 2.130897 -17.958150 0.032551 0.670175 -5.562402 0.008101 0.334534 -2.773105 -0.000000 0.000001 -0.000001 -9.270932 -16.192217 18.228383 7.611412 15.456660 -3.771414 1.166853 5.392134 0.593965 0.000002 0.000002 0.000001 0.337343 2.132732 -17.974140 0.032360 0.668250 -5.546427 0.008097 0.334539 -2.773098 -0.000000 0.000000 0.000001 0.337354 2.132735 -17.974135 0.032354 0.668261 -5.546437 0.008104 0.334529 -2.773105 -0.000002 0.000002 -0.000002 1.577102 5.993901 -17.551631 0.020304 -3.386295 -6.054795 0.008103 0.334517 -2.773119 -0.000001 0.000002 -0.000005 -0.529459 -2.437624 -12.140368 -38.027990 -22.052330 -16.106093 -0.000004 17.186477 -0.000000 18.954332 -8.265351 9.593813 0.226449 -1.763507 14.633612 0.215909 -1.722594 14.286953 0.054171 -0.868023 7.141858 0.000001 -0.000001 -0.000000 -38.337705 -0.305044 -3.312103 4.645041 -8.656793 -0.231326 -1.269823 0.126086 -2.098661 0.000003 -0.000001 0.000003 0.226452 -1.763493 14.633602 0.215902 -1.722594 14.286966 0.054178 -0.868026 7.141848 0.000002 0.000001 -0.000001 0.226458 -1.763494 14.633598 0.215897 -1.722600 14.286968 0.054169 -0.868033 7.141848 0.000001 -0.000001 0.000002 0.226453 -1.763493 14.633605 0.215908 -1.722604 14.286952 0.054162 -0.868021 7.141862 0.000000 0.000000 0.000001 -20.401176 11.548268 16.615957 32.488898 7.020490 0.254659 -6.836715 -1.147978 11.061969 -11.469091 0.000020 0.000002 -0.000000 0.000002 -0.000001 -71.123764 13.027169 0.852149 98.858710 0.720057 -0.140706 46.629609 2.635608 11.360935 -0.000005 -0.000006 0.000003 -0.000000 -0.000003 -0.000001 
10.445801 206.474274 5.064096 -1.477194 20.249802 -18.108392 3.503790 -0.663714 -3.105940 5.994075 -1.815587 -6.744404 6.008759 -1.683469 -6.771567 8.626747 3.377565 1.958698 -1.675377 19.782026 -0.040315 -0.000001 0.000000 -0.000001 -0.000001 0.000000 -0.000001 -0.000001 0.000000 -0.000001 1.787415 -9.582015 5.907631 -7.624445 9.193160 -21.571609 -0.000005 -27.193812 0.000001 62.602447 -32.809722 20.915079 0.336747 2.130897 -17.958152 0.032548 0.670177 -5.562402 0.008103 0.334533 -2.773103 0.000001 -0.000002 0.000001 -9.270932 -16.192218 18.228361 7.611410 15.456663 -3.771416 1.166852 5.392136 0.593965 -0.000002 -0.000000 0.000000 0.337343 2.132735 -17.974141 0.032357 0.668251 -5.546424 0.008098 0.334539 -2.773104 -0.000000 0.000000 -0.000002 0.337354 2.132738 -17.974136 0.032352 0.668260 -5.546435 0.008108 0.334528 -2.773108 -0.000001 -0.000001 -0.000000 1.577103 5.993903 -17.551634 0.020306 -3.386294 -6.054795 0.008102 0.334517 -2.773116 -0.000002 0.000000 -0.000003 -0.072545 -0.262568 -12.110460 -37.532180 -13.566435 -10.786038 -0.000005 12.915419 0.000003 21.523226 -4.162218 17.141593 0.226451 -1.763505 14.633614 0.215907 -1.722593 14.286948 0.054171 -0.868022 7.141856 0.000000 -0.000000 -0.000000 -38.337705 -0.305047 -3.312099 4.645042 -8.656799 -0.231328 -1.269823 0.126082 -2.098657 -0.000001 -0.000001 -0.000000 0.226453 -1.763491 14.633598 0.215902 -1.722593 14.286969 0.054177 -0.868025 7.141840 -0.000000 -0.000000 -0.000001 0.226458 -1.763492 14.633598 0.215894 -1.722600 14.286965 0.054171 -0.868030 7.141848 -0.000001 -0.000000 0.000001 0.226455 -1.763493 14.633612 0.215909 -1.722605 14.286957 0.054163 -0.868020 7.141861 0.000000 -0.000000 0.000001 -21.707053 10.744896 19.673100 28.995212 0.564652 -0.040071 -1.188173 0.089790 13.429361 -12.833978 0.000024 0.000001 0.000000 0.000003 0.000001 -66.638631 10.981140 0.778417 88.577786 -1.512137 -0.239916 40.935021 1.725420 10.283096 -0.000000 0.000002 -0.000002 0.000000 -0.000001 0.000001 
5.873180 210.326859 3.847122 1.033447 29.138082 -21.595933 3.887599 -0.744699 -2.508552 6.762019 -1.947585 -6.105560 6.772605 -1.835303 -6.134161 8.891116 2.733429 1.878345 -0.455245 15.799976 1.313859 -0.000003 0.000000 -0.000000 -0.000003 0.000000 -0.000000 -0.000003 0.000000 -0.000000 2.109497 -11.352619 5.415132 -14.705244 -3.490749 -21.666793 0.000005 -19.647476 0.000015 66.561703 -31.989864 20.419143 0.336746 2.130899 -17.958150 0.032550 0.670172 -5.562401 0.008102 0.334533 -2.773102 -0.000001 0.000002 -0.000003 -9.270931 -16.192220 18.228364 7.611409 15.456660 -3.771412 1.166852 5.392136 0.593960 0.000002 0.000001 0.000001 0.337342 2.132732 -17.974140 0.032359 0.668249 -5.546421 0.008099 0.334541 -2.773107 -0.000000 -0.000000 0.000001 0.337352 2.132736 -17.974131 0.032352 0.668260 -5.546434 0.008101 0.334528 -2.773102 0.000000 -0.000001 -0.000002 1.577101 5.993904 -17.551633 0.020303 -3.386297 -6.054795 0.008105 0.334514 -2.773113 0.000000 -0.000002 0.000003 0.328508 1.476775 -10.534339 -36.458597 -8.809152 -4.534102 -0.000002 9.814575 -0.000022 23.938027 -0.279797 24.822989 0.226449 -1.763506 14.633621 0.215906 -1.722591 14.286952 0.054171 -0.868023 7.141857 0.000001 -0.000000 -0.000000 -38.337708 -0.305053 -3.312097 4.645043 -8.656797 -0.231328 -1.269823 0.126082 -2.098660 -0.000002 0.000002 -0.000000 0.226454 -1.763493 14.633603 0.215899 -1.722597 14.286965 0.054177 -0.868026 7.141844 -0.000000 -0.000002 -0.000001 0.226460 -1.763493 14.633600 0.215893 -1.722599 14.286969 0.054171 -0.868034 7.141851 -0.000000 0.000001 0.000001 0.226455 -1.763496 14.633615 0.215909 -1.722603 14.286955 0.054164 -0.868019 7.141863 -0.000002 0.000001 -0.000000 -26.516280 9.449054 21.456076 25.336645 -6.680661 -0.315540 12.846103 2.031660 14.393632 -17.788447 0.014813 -1.136544 0.000000 0.000002 -0.000002 -60.608701 7.908743 0.568689 74.564321 -2.290466 -0.271125 37.068833 1.912876 12.200367 -0.000005 -0.000003 -0.000004 -0.000002 0.000000 -0.000002 
1.372589 213.486359 3.972027 6.404832 38.380021 -26.648055 4.374258 -1.056419 -2.208152 7.867476 -2.393862 -5.162765 7.872974 -2.318848 -5.192347 8.796035 2.058969 1.737411 -0.569536 11.367782 3.117807 -0.000000 -0.000001 -0.000000 -0.000000 -0.000001 -0.000000 -0.000000 -0.000001 -0.000000 2.057665 -11.003956 5.264805 -22.473421 -16.301992 -28.023230 0.000009 -16.473440 0.000004 68.963792 -31.497995 19.324956 0.336744 2.130896 -17.958150 0.032550 0.670178 -5.562406 0.008105 0.334533 -2.773103 0.000002 -0.000001 0.000003 -9.270940 -16.192205 18.228373 7.611410 15.456663 -3.771414 1.166852 5.392136 0.593968 0.000003 -0.000000 -0.000000 0.337339 2.132733 -17.974140 0.032360 0.668251 -5.546429 0.008096 0.334539 -2.773102 -0.000002 -0.000001 -0.000001 0.337350 2.132736 -17.974131 0.032356 0.668260 -5.546438 0.008103 0.334530 -2.773112 -0.000001 0.000000 0.000002 1.577102 5.993901 -17.551629 0.020302 -3.386296 -6.054795 0.008102 0.334517 -2.773117 -0.000001 -0.000001 0.000005 0.456374 1.920095 -8.467156 -34.757098 -5.537972 2.777821 0.000002 7.757695 -0.000003 25.942051 1.675478 25.781640 0.226451 -1.763507 14.633609 0.215906 -1.722594 14.286948 0.054172 -0.868020 7.141858 0.000001 -0.000002 0.000000 -38.337708 -0.305046 -3.312104 4.645040 -8.656793 -0.231326 -1.269826 0.126087 -2.098657 -0.000001 -0.000002 -0.000000 0.226453 -1.763495 14.633602 0.215903 -1.722595 14.286971 0.054177 -0.868023 7.141844 0.000002 0.000002 -0.000003 0.226458 -1.763492 14.633600 0.215898 -1.722600 14.286963 0.054170 -0.868035 7.141852 0.000000 -0.000002 -0.000001 0.226455 -1.763496 14.633609 0.215909 -1.722607 14.286958 0.054168 -0.868016 7.141862 -0.000003 0.000001 0.000000 -31.157359 8.711268 21.358357 17.783296 -8.867128 -0.389262 30.008798 3.743510 13.138007 -23.894915 0.536048 -6.795772 0.000000 0.000000 0.000000 -55.258478 6.117106 0.508766 58.787138 -3.365745 -0.314861 35.635822 2.063062 13.231964 0.000003 -0.000009 0.000001 -0.000004 0.000003 -0.000002 
-2.425812 215.141983 5.793259 14.924844 47.098925 -33.268383 4.797402 -1.551848 -2.265211 9.046863 -2.950831 -4.066739 9.045939 -2.924670 -4.088258 7.799526 1.266641 1.548094 -2.129419 6.239342 5.058704 -0.000000 0.000001 0.000001 -0.000000 0.000001 0.000001 -0.000000 0.000001 0.000001 1.895657 -9.906796 4.793570 -32.038945 -27.582510 -35.297335 0.000003 -15.769213 0.000008 69.840262 -31.861050 18.041270 0.336745 2.130897 -17.958145 0.032546 0.670176 -5.562403 0.008102 0.334531 -2.773101 -0.000002 0.000000 0.000002 -9.270938 -16.192201 18.228373 7.611414 15.456662 -3.771413 1.166852 5.392135 0.593964 0.000000 -0.000001 -0.000001 0.337340 2.132733 -17.974138 0.032362 0.668250 -5.546422 0.008096 0.334538 -2.773102 -0.000000 -0.000001 0.000001 0.337352 2.132735 -17.974133 0.032355 0.668261 -5.546431 0.008100 0.334527 -2.773102 -0.000001 -0.000001 0.000002 1.577102 5.993902 -17.551631 0.020303 -3.386294 -6.054795 0.008104 0.334516 -2.773117 -0.000001 0.000001 -0.000001 0.422781 1.607370 -7.423414 -33.396801 -2.511820 11.284325 0.000003 6.360870 0.000011 27.887136 1.680806 20.636020 0.226447 -1.763501 14.633612 0.215905 -1.722593 14.286953 0.054175 -0.868023 7.141859 -0.000003 -0.000001 -0.000002 -38.337705 -0.305045 -3.312098 4.645042 -8.656798 -0.231327 -1.269824 0.126085 -2.098659 -0.000001 -0.000002 -0.000000 0.226454 -1.763488 14.633598 0.215900 -1.722591 14.286972 0.054183 -0.868025 7.141845 -0.000001 0.000000 0.000001 0.226460 -1.763491 14.633598 0.215895 -1.722600 14.286970 0.054171 -0.868028 7.141852 -0.000001 -0.000002 0.000002 0.226453 -1.763491 14.633610 0.215906 -1.722601 14.286955 0.054164 -0.868030 7.141863 -0.000002 0.000000 0.000001 -33.114851 8.867813 20.358984 9.214062 -9.832597 -0.469266 38.147146 4.953356 10.209889 -25.734739 1.082903 -6.764075 -0.000000 -0.000003 0.000000 -50.197936 5.628061 -0.384228 42.386733 -3.884415 -0.336765 35.040486 1.822001 12.774556 -0.000002 -0.000008 0.000004 0.000001 -0.000001 -0.000002 
